<mxfile modified="2023-11-02T11:02:48.626Z" host="Electron" agent="Mozilla/5.0 (Windows NT 10.0; Win64; x64) AppleWebKit/537.36 (KHTML, like Gecko) draw.io/22.0.3 Chrome/114.0.5735.289 Electron/25.8.4 Safari/537.36" etag="TYDQm7Jf0v4BTTPKMTUW" version="22.0.3" type="device">
  <diagram id="Ht1M8jgEwFfnCIfOTk4-" name="Page-1">
    <mxGraphModel dx="2573" dy="1641" grid="1" gridSize="4" guides="1" tooltips="1" connect="1" arrows="1" fold="1" page="1" pageScale="1" pageWidth="1169" pageHeight="827" math="0" shadow="0">
      <root>
        <mxCell id="0" />
        <mxCell id="1" parent="0" />
        <mxCell id="eYxBuY7Py7PClH6O-nrH-38" value="&lt;span style=&quot;font-size: 40px;&quot;&gt;Migration Phase Ended&lt;/span&gt;" style="text;html=1;align=center;verticalAlign=middle;resizable=0;points=[];autosize=1;strokeColor=none;fillColor=none;fontSize=20;fontFamily=Architects Daughter;fontColor=#1A1A1A;rounded=0;" parent="1" vertex="1">
          <mxGeometry x="-226" y="-784" width="436" height="64" as="geometry" />
        </mxCell>
        <mxCell id="y_hJPUTwGHVDO47t9u5H-1" value="Region" style="points=[[0,0],[0.25,0],[0.5,0],[0.75,0],[1,0],[1,0.25],[1,0.5],[1,0.75],[1,1],[0.75,1],[0.5,1],[0.25,1],[0,1],[0,0.75],[0,0.5],[0,0.25]];outlineConnect=0;gradientColor=none;html=1;whiteSpace=wrap;fontSize=12;fontStyle=0;container=1;pointerEvents=0;collapsible=0;recursiveResize=0;shape=mxgraph.aws4.group;grIcon=mxgraph.aws4.group_region;strokeColor=#147EBA;fillColor=none;verticalAlign=top;align=left;spacingLeft=30;fontColor=#147EBA;dashed=1;hachureGap=4;fontFamily=Architects Daughter;fontSource=https%3A%2F%2Ffonts.googleapis.com%2Fcss%3Ffamily%3DArchitects%2BDaughter;rounded=0;" parent="1" vertex="1">
          <mxGeometry x="-368" y="-560" width="688" height="376" as="geometry" />
        </mxCell>
        <mxCell id="5FSwtbx7xSjNY1tLkPIk-3" value="AWS Cloud" style="points=[[0,0],[0.25,0],[0.5,0],[0.75,0],[1,0],[1,0.25],[1,0.5],[1,0.75],[1,1],[0.75,1],[0.5,1],[0.25,1],[0,1],[0,0.75],[0,0.5],[0,0.25]];outlineConnect=0;gradientColor=none;html=1;whiteSpace=wrap;fontSize=12;fontStyle=0;container=1;pointerEvents=0;collapsible=0;recursiveResize=0;shape=mxgraph.aws4.group;grIcon=mxgraph.aws4.group_aws_cloud_alt;strokeColor=#232F3E;fillColor=none;verticalAlign=top;align=left;spacingLeft=30;fontColor=#232F3E;dashed=0;" parent="y_hJPUTwGHVDO47t9u5H-1" vertex="1">
          <mxGeometry x="-28" y="-32" width="748" height="432" as="geometry" />
        </mxCell>
        <mxCell id="lrNDycpXaLt_dn_Bjy4l-2" value="Private subnet" style="points=[[0,0],[0.25,0],[0.5,0],[0.75,0],[1,0],[1,0.25],[1,0.5],[1,0.75],[1,1],[0.75,1],[0.5,1],[0.25,1],[0,1],[0,0.75],[0,0.5],[0,0.25]];outlineConnect=0;gradientColor=none;html=1;whiteSpace=wrap;fontSize=12;fontStyle=0;container=1;pointerEvents=0;collapsible=0;recursiveResize=0;shape=mxgraph.aws4.group;grIcon=mxgraph.aws4.group_security_group;grStroke=0;strokeColor=#147EBA;fillColor=#E6F2F8;verticalAlign=top;align=left;spacingLeft=30;fontColor=#147EBA;dashed=0;" parent="5FSwtbx7xSjNY1tLkPIk-3" vertex="1">
          <mxGeometry x="444" y="120" width="122" height="84" as="geometry" />
        </mxCell>
        <mxCell id="lrNDycpXaLt_dn_Bjy4l-3" value="Private subnet" style="points=[[0,0],[0.25,0],[0.5,0],[0.75,0],[1,0],[1,0.25],[1,0.5],[1,0.75],[1,1],[0.75,1],[0.5,1],[0.25,1],[0,1],[0,0.75],[0,0.5],[0,0.25]];outlineConnect=0;gradientColor=none;html=1;whiteSpace=wrap;fontSize=12;fontStyle=0;container=1;pointerEvents=0;collapsible=0;recursiveResize=0;shape=mxgraph.aws4.group;grIcon=mxgraph.aws4.group_security_group;grStroke=0;strokeColor=#147EBA;fillColor=#E6F2F8;verticalAlign=top;align=left;spacingLeft=30;fontColor=#147EBA;dashed=0;" parent="5FSwtbx7xSjNY1tLkPIk-3" vertex="1">
          <mxGeometry x="444" y="212" width="122" height="93" as="geometry" />
        </mxCell>
        <mxCell id="lrNDycpXaLt_dn_Bjy4l-4" value="AZ 1" style="fillColor=none;strokeColor=#147EBA;dashed=1;verticalAlign=top;fontStyle=0;fontColor=#147EBA;whiteSpace=wrap;html=1;" parent="5FSwtbx7xSjNY1tLkPIk-3" vertex="1">
          <mxGeometry x="228" y="72" width="136" height="244" as="geometry" />
        </mxCell>
        <mxCell id="lrNDycpXaLt_dn_Bjy4l-5" value="Private subnet" style="points=[[0,0],[0.25,0],[0.5,0],[0.75,0],[1,0],[1,0.25],[1,0.5],[1,0.75],[1,1],[0.75,1],[0.5,1],[0.25,1],[0,1],[0,0.75],[0,0.5],[0,0.25]];outlineConnect=0;gradientColor=none;html=1;whiteSpace=wrap;fontSize=12;fontStyle=0;container=1;pointerEvents=0;collapsible=0;recursiveResize=0;shape=mxgraph.aws4.group;grIcon=mxgraph.aws4.group_security_group;grStroke=0;strokeColor=#147EBA;fillColor=#E6F2F8;verticalAlign=top;align=left;spacingLeft=30;fontColor=#147EBA;dashed=0;" parent="5FSwtbx7xSjNY1tLkPIk-3" vertex="1">
          <mxGeometry x="232" y="212" width="125" height="93" as="geometry" />
        </mxCell>
        <mxCell id="lrNDycpXaLt_dn_Bjy4l-6" value="" style="sketch=0;outlineConnect=0;fontColor=#232F3E;gradientColor=none;fillColor=#0000CC;strokeColor=none;dashed=0;verticalLabelPosition=bottom;verticalAlign=top;align=center;html=1;fontSize=12;fontStyle=0;aspect=fixed;pointerEvents=1;shape=mxgraph.aws4.aurora_instance;" parent="5FSwtbx7xSjNY1tLkPIk-3" vertex="1">
          <mxGeometry x="275.5" y="148" width="38" height="38" as="geometry" />
        </mxCell>
        <mxCell id="lrNDycpXaLt_dn_Bjy4l-7" value="&lt;font data-font-src=&quot;https://fonts.googleapis.com/css?family=Architects+Daughter&quot; face=&quot;Architects Daughter&quot;&gt;Aurora Master&lt;br&gt;&lt;/font&gt;" style="text;html=1;align=center;verticalAlign=middle;resizable=0;points=[];autosize=1;strokeColor=none;fillColor=none;" parent="5FSwtbx7xSjNY1tLkPIk-3" vertex="1">
          <mxGeometry x="242" y="177" width="108" height="28" as="geometry" />
        </mxCell>
        <mxCell id="lrNDycpXaLt_dn_Bjy4l-8" value="" style="rounded=1;arcSize=10;dashed=1;fillColor=none;gradientColor=none;dashPattern=8 3 1 3;strokeWidth=2;strokeColor=#e08a4c;" parent="5FSwtbx7xSjNY1tLkPIk-3" vertex="1">
          <mxGeometry x="196" y="244" width="416" height="60" as="geometry" />
        </mxCell>
        <mxCell id="lrNDycpXaLt_dn_Bjy4l-9" value="" style="sketch=0;outlineConnect=0;fontColor=#232F3E;gradientColor=none;fillColor=#7AA116;strokeColor=none;dashed=0;verticalLabelPosition=bottom;verticalAlign=top;align=center;html=1;fontSize=12;fontStyle=0;aspect=fixed;pointerEvents=1;shape=mxgraph.aws4.volume;" parent="5FSwtbx7xSjNY1tLkPIk-3" vertex="1">
          <mxGeometry x="308" y="252" width="34.97" height="44" as="geometry" />
        </mxCell>
        <mxCell id="lrNDycpXaLt_dn_Bjy4l-10" value="&lt;font data-font-src=&quot;https://fonts.googleapis.com/css?family=Architects+Daughter&quot; face=&quot;Architects Daughter&quot;&gt;EBS&lt;/font&gt;" style="text;html=1;align=center;verticalAlign=middle;resizable=0;points=[];autosize=1;strokeColor=none;fillColor=none;" parent="5FSwtbx7xSjNY1tLkPIk-3" vertex="1">
          <mxGeometry x="303.48" y="264" width="44" height="28" as="geometry" />
        </mxCell>
        <mxCell id="lrNDycpXaLt_dn_Bjy4l-11" value="Private subnet" style="points=[[0,0],[0.25,0],[0.5,0],[0.75,0],[1,0],[1,0.25],[1,0.5],[1,0.75],[1,1],[0.75,1],[0.5,1],[0.25,1],[0,1],[0,0.75],[0,0.5],[0,0.25]];outlineConnect=0;gradientColor=none;html=1;whiteSpace=wrap;fontSize=12;fontStyle=0;container=1;pointerEvents=0;collapsible=0;recursiveResize=0;shape=mxgraph.aws4.group;grIcon=mxgraph.aws4.group_security_group;grStroke=0;strokeColor=#147EBA;fillColor=#E6F2F8;verticalAlign=top;align=left;spacingLeft=30;fontColor=#147EBA;dashed=0;" parent="5FSwtbx7xSjNY1tLkPIk-3" vertex="1">
          <mxGeometry x="236" y="120" width="122" height="84" as="geometry" />
        </mxCell>
        <mxCell id="lrNDycpXaLt_dn_Bjy4l-12" value="&lt;font style=&quot;font-size: 10px;&quot; data-font-src=&quot;https://fonts.googleapis.com/css?family=Architects+Daughter&quot; face=&quot;Architects Daughter&quot;&gt;EBS Snapshot&amp;nbsp;&lt;br&gt;On ASG Terminate Lifecycle hook&lt;/font&gt;" style="text;html=1;align=center;verticalAlign=middle;resizable=0;points=[];autosize=1;strokeColor=none;fillColor=none;" parent="5FSwtbx7xSjNY1tLkPIk-3" vertex="1">
          <mxGeometry x="220" y="352" width="184" height="44" as="geometry" />
        </mxCell>
        <mxCell id="lrNDycpXaLt_dn_Bjy4l-13" value="&lt;font color=&quot;#000000&quot; data-font-src=&quot;https://fonts.googleapis.com/css?family=Architects+Daughter&quot; face=&quot;Architects Daughter&quot;&gt;Migrated Resources&lt;/font&gt;" style="points=[[0,0],[0.25,0],[0.5,0],[0.75,0],[1,0],[1,0.25],[1,0.5],[1,0.75],[1,1],[0.75,1],[0.5,1],[0.25,1],[0,1],[0,0.75],[0,0.5],[0,0.25]];outlineConnect=0;gradientColor=none;html=1;whiteSpace=wrap;fontSize=12;fontStyle=0;container=1;pointerEvents=0;collapsible=0;recursiveResize=0;shape=mxgraph.aws4.group;grIcon=mxgraph.aws4.group_vpc;strokeColor=#248814;fillColor=none;verticalAlign=top;align=left;spacingLeft=30;fontColor=#AAB7B8;dashed=0;" parent="5FSwtbx7xSjNY1tLkPIk-3" vertex="1">
          <mxGeometry x="188" y="92" width="444" height="232" as="geometry" />
        </mxCell>
        <mxCell id="lrNDycpXaLt_dn_Bjy4l-14" value="" style="sketch=0;outlineConnect=0;fontColor=#232F3E;gradientColor=none;fillColor=#8C4FFF;strokeColor=none;dashed=0;verticalLabelPosition=bottom;verticalAlign=top;align=center;html=1;fontSize=12;fontStyle=0;aspect=fixed;pointerEvents=1;shape=mxgraph.aws4.application_load_balancer;" parent="lrNDycpXaLt_dn_Bjy4l-13" vertex="1">
          <mxGeometry x="189.25" y="92" width="41.5" height="41.5" as="geometry" />
        </mxCell>
        <mxCell id="lrNDycpXaLt_dn_Bjy4l-15" value="ALB" style="text;html=1;align=center;verticalAlign=middle;resizable=0;points=[];autosize=1;strokeColor=none;fillColor=none;" parent="lrNDycpXaLt_dn_Bjy4l-13" vertex="1">
          <mxGeometry x="188" y="128" width="44" height="28" as="geometry" />
        </mxCell>
        <mxCell id="lrNDycpXaLt_dn_Bjy4l-16" value="" style="sketch=0;points=[[0,0,0],[0.25,0,0],[0.5,0,0],[0.75,0,0],[1,0,0],[0,1,0],[0.25,1,0],[0.5,1,0],[0.75,1,0],[1,1,0],[0,0.25,0],[0,0.5,0],[0,0.75,0],[1,0.25,0],[1,0.5,0],[1,0.75,0]];outlineConnect=0;fontColor=#232F3E;fillColor=#ED7100;strokeColor=#ffffff;dashed=0;verticalLabelPosition=bottom;verticalAlign=top;align=center;html=1;fontSize=12;fontStyle=0;aspect=fixed;shape=mxgraph.aws4.resourceIcon;resIcon=mxgraph.aws4.auto_scaling2;" parent="lrNDycpXaLt_dn_Bjy4l-13" vertex="1">
          <mxGeometry x="12" y="156" width="24" height="24" as="geometry" />
        </mxCell>
        <mxCell id="lrNDycpXaLt_dn_Bjy4l-17" value="&lt;font style=&quot;font-size: 10px;&quot; data-font-src=&quot;https://fonts.googleapis.com/css?family=Architects+Daughter&quot; face=&quot;Architects Daughter&quot;&gt;Asyncronous&lt;/font&gt;" style="text;html=1;align=center;verticalAlign=middle;resizable=0;points=[];autosize=1;strokeColor=none;fillColor=none;" parent="lrNDycpXaLt_dn_Bjy4l-13" vertex="1">
          <mxGeometry x="168" y="72" width="84" height="28" as="geometry" />
        </mxCell>
        <mxCell id="lrNDycpXaLt_dn_Bjy4l-33" value="" style="endArrow=classic;html=1;rounded=0;labelBackgroundColor=default;hachureGap=4;strokeColor=#e08a4c;align=center;verticalAlign=middle;fontFamily=Architects Daughter;fontSource=https://fonts.googleapis.com/css?family=Architects+Daughter;fontSize=16;fontColor=default;shape=connector;fillColor=#ffe6cc;strokeWidth=2;sketch=1;curveFitting=1;jiggle=2;exitX=1.018;exitY=0.539;exitDx=0;exitDy=0;exitPerimeter=0;" parent="lrNDycpXaLt_dn_Bjy4l-13" edge="1">
          <mxGeometry width="50" height="50" relative="1" as="geometry">
            <mxPoint x="-52.003999999999934" y="196.96399999999994" as="sourcePoint" />
            <mxPoint x="33.97999999999999" y="196" as="targetPoint" />
          </mxGeometry>
        </mxCell>
        <mxCell id="lrNDycpXaLt_dn_Bjy4l-18" value="AZ 2" style="fillColor=none;strokeColor=#147EBA;dashed=1;verticalAlign=top;fontStyle=0;fontColor=#147EBA;whiteSpace=wrap;html=1;" parent="5FSwtbx7xSjNY1tLkPIk-3" vertex="1">
          <mxGeometry x="436" y="72" width="136" height="244" as="geometry" />
        </mxCell>
        <mxCell id="lrNDycpXaLt_dn_Bjy4l-19" value="" style="sketch=0;outlineConnect=0;fontColor=#232F3E;gradientColor=none;fillColor=#3333FF;strokeColor=none;dashed=0;verticalLabelPosition=bottom;verticalAlign=top;align=center;html=1;fontSize=12;fontStyle=0;aspect=fixed;pointerEvents=1;shape=mxgraph.aws4.aurora_instance;" parent="5FSwtbx7xSjNY1tLkPIk-3" vertex="1">
          <mxGeometry x="276" y="144" width="40" height="40" as="geometry" />
        </mxCell>
        <mxCell id="lrNDycpXaLt_dn_Bjy4l-20" value="&lt;font style=&quot;font-size: 9px;&quot; data-font-src=&quot;https://fonts.googleapis.com/css?family=Architects+Daughter&quot; face=&quot;Architects Daughter&quot;&gt;Aurora Master Serverless&lt;/font&gt;" style="text;html=1;align=center;verticalAlign=middle;resizable=0;points=[];autosize=1;strokeColor=none;fillColor=none;" parent="5FSwtbx7xSjNY1tLkPIk-3" vertex="1">
          <mxGeometry x="436" y="176" width="136" height="28" as="geometry" />
        </mxCell>
        <mxCell id="lrNDycpXaLt_dn_Bjy4l-21" value="&lt;font style=&quot;font-size: 9px;&quot; data-font-src=&quot;https://fonts.googleapis.com/css?family=Architects+Daughter&quot; face=&quot;Architects Daughter&quot;&gt;Aurora Read Replica&lt;/font&gt;" style="text;html=1;align=center;verticalAlign=middle;resizable=0;points=[];autosize=1;strokeColor=none;fillColor=none;" parent="5FSwtbx7xSjNY1tLkPIk-3" vertex="1">
          <mxGeometry x="242" y="176" width="108" height="28" as="geometry" />
        </mxCell>
        <mxCell id="lrNDycpXaLt_dn_Bjy4l-22" value="" style="sketch=0;outlineConnect=0;fontColor=#232F3E;gradientColor=none;fillColor=#3333FF;strokeColor=none;dashed=0;verticalLabelPosition=bottom;verticalAlign=top;align=center;html=1;fontSize=12;fontStyle=0;aspect=fixed;pointerEvents=1;shape=mxgraph.aws4.aurora_instance;" parent="5FSwtbx7xSjNY1tLkPIk-3" vertex="1">
          <mxGeometry x="484" y="144" width="40" height="40" as="geometry" />
        </mxCell>
        <mxCell id="lrNDycpXaLt_dn_Bjy4l-23" value="" style="endArrow=classic;startArrow=classic;html=1;rounded=0;sketch=1;curveFitting=1;jiggle=2;fillColor=#e1d5e7;strokeColor=#9673a6;" parent="5FSwtbx7xSjNY1tLkPIk-3" edge="1">
          <mxGeometry width="50" height="50" relative="1" as="geometry">
            <mxPoint x="332" y="168" as="sourcePoint" />
            <mxPoint x="460" y="168" as="targetPoint" />
          </mxGeometry>
        </mxCell>
        <mxCell id="lrNDycpXaLt_dn_Bjy4l-24" value="" style="sketch=0;outlineConnect=0;fontColor=#232F3E;gradientColor=none;fillColor=#7AA116;strokeColor=none;dashed=0;verticalLabelPosition=bottom;verticalAlign=top;align=center;html=1;fontSize=12;fontStyle=0;aspect=fixed;pointerEvents=1;shape=mxgraph.aws4.volume;" parent="5FSwtbx7xSjNY1tLkPIk-3" vertex="1">
          <mxGeometry x="524" y="252" width="34.97" height="44" as="geometry" />
        </mxCell>
        <mxCell id="lrNDycpXaLt_dn_Bjy4l-25" value="" style="sketch=0;outlineConnect=0;fontColor=#232F3E;gradientColor=none;fillColor=#ED7100;strokeColor=none;dashed=0;verticalLabelPosition=bottom;verticalAlign=top;align=center;html=1;fontSize=12;fontStyle=0;aspect=fixed;pointerEvents=1;shape=mxgraph.aws4.instance2;" parent="5FSwtbx7xSjNY1tLkPIk-3" vertex="1">
          <mxGeometry x="452" y="252" width="44" height="44" as="geometry" />
        </mxCell>
        <mxCell id="lrNDycpXaLt_dn_Bjy4l-26" value="&lt;font data-font-src=&quot;https://fonts.googleapis.com/css?family=Architects+Daughter&quot; face=&quot;Architects Daughter&quot;&gt;EBS&lt;/font&gt;" style="text;html=1;align=center;verticalAlign=middle;resizable=0;points=[];autosize=1;strokeColor=none;fillColor=none;" parent="5FSwtbx7xSjNY1tLkPIk-3" vertex="1">
          <mxGeometry x="519.48" y="264" width="44" height="28" as="geometry" />
        </mxCell>
        <mxCell id="lrNDycpXaLt_dn_Bjy4l-27" value="" style="sketch=0;outlineConnect=0;fontColor=#232F3E;gradientColor=none;fillColor=#7AA116;strokeColor=none;dashed=0;verticalLabelPosition=bottom;verticalAlign=top;align=center;html=1;fontSize=12;fontStyle=0;aspect=fixed;pointerEvents=1;shape=mxgraph.aws4.snapshot;" parent="5FSwtbx7xSjNY1tLkPIk-3" vertex="1">
          <mxGeometry x="404" y="340" width="37.33" height="52" as="geometry" />
        </mxCell>
        <mxCell id="lrNDycpXaLt_dn_Bjy4l-28" value="" style="endArrow=classic;html=1;rounded=0;labelBackgroundColor=default;hachureGap=4;strokeColor=#82b366;align=center;verticalAlign=middle;fontFamily=Architects Daughter;fontSource=https://fonts.googleapis.com/css?family=Architects+Daughter;fontSize=16;fontColor=default;shape=connector;fillColor=#d5e8d4;strokeWidth=1;sketch=1;curveFitting=1;jiggle=2;" parent="5FSwtbx7xSjNY1tLkPIk-3" edge="1">
          <mxGeometry width="50" height="50" relative="1" as="geometry">
            <mxPoint x="540" y="356" as="sourcePoint" />
            <mxPoint x="540" y="296" as="targetPoint" />
          </mxGeometry>
        </mxCell>
        <mxCell id="lrNDycpXaLt_dn_Bjy4l-29" value="" style="endArrow=classic;html=1;rounded=0;labelBackgroundColor=default;hachureGap=4;strokeColor=#82b366;align=center;verticalAlign=middle;fontFamily=Architects Daughter;fontSource=https://fonts.googleapis.com/css?family=Architects+Daughter;fontSize=16;fontColor=default;shape=connector;fillColor=#d5e8d4;strokeWidth=1;sketch=1;curveFitting=1;jiggle=2;" parent="5FSwtbx7xSjNY1tLkPIk-3" edge="1">
          <mxGeometry width="50" height="50" relative="1" as="geometry">
            <mxPoint x="324" y="356" as="sourcePoint" />
            <mxPoint x="324" y="296" as="targetPoint" />
          </mxGeometry>
        </mxCell>
        <mxCell id="lrNDycpXaLt_dn_Bjy4l-30" value="" style="endArrow=none;html=1;rounded=0;labelBackgroundColor=default;hachureGap=4;strokeColor=#82b366;align=center;verticalAlign=middle;fontFamily=Architects Daughter;fontSource=https://fonts.googleapis.com/css?family=Architects+Daughter;fontSize=16;fontColor=default;shape=connector;fillColor=#d5e8d4;sketch=1;curveFitting=1;jiggle=2;" parent="5FSwtbx7xSjNY1tLkPIk-3" edge="1">
          <mxGeometry width="50" height="50" relative="1" as="geometry">
            <mxPoint x="440" y="356" as="sourcePoint" />
            <mxPoint x="540" y="356" as="targetPoint" />
          </mxGeometry>
        </mxCell>
        <mxCell id="lrNDycpXaLt_dn_Bjy4l-31" value="" style="endArrow=none;html=1;rounded=0;labelBackgroundColor=default;hachureGap=4;strokeColor=#82b366;align=center;verticalAlign=middle;fontFamily=Architects Daughter;fontSource=https://fonts.googleapis.com/css?family=Architects+Daughter;fontSize=16;fontColor=default;shape=connector;fillColor=#d5e8d4;sketch=1;curveFitting=1;jiggle=2;" parent="5FSwtbx7xSjNY1tLkPIk-3" edge="1">
          <mxGeometry width="50" height="50" relative="1" as="geometry">
            <mxPoint x="324" y="356" as="sourcePoint" />
            <mxPoint x="404" y="356" as="targetPoint" />
          </mxGeometry>
        </mxCell>
        <mxCell id="lrNDycpXaLt_dn_Bjy4l-32" value="&lt;font style=&quot;font-size: 10px;&quot; data-font-src=&quot;https://fonts.googleapis.com/css?family=Architects+Daughter&quot; face=&quot;Architects Daughter&quot;&gt;EBS Snapshot + attached&lt;br&gt;On ASG Launch Lifecycle hook&lt;/font&gt;" style="text;html=1;align=center;verticalAlign=middle;resizable=0;points=[];autosize=1;strokeColor=none;fillColor=none;" parent="5FSwtbx7xSjNY1tLkPIk-3" vertex="1">
          <mxGeometry x="449.3299999999999" y="352" width="172" height="44" as="geometry" />
        </mxCell>
        <mxCell id="lrNDycpXaLt_dn_Bjy4l-34" value="&lt;font style=&quot;font-size: 9px;&quot; face=&quot;Architects Daughter&quot;&gt;Monolith&lt;br&gt;&lt;br&gt;&lt;/font&gt;" style="text;html=1;align=center;verticalAlign=middle;resizable=0;points=[];autosize=1;strokeColor=none;fillColor=none;" parent="5FSwtbx7xSjNY1tLkPIk-3" vertex="1">
          <mxGeometry x="446" y="256" width="56" height="44" as="geometry" />
        </mxCell>
        <mxCell id="lrNDycpXaLt_dn_Bjy4l-35" value="&lt;p style=&quot;line-height: 100%;&quot;&gt;&lt;font style=&quot;font-size: 10px;&quot; data-font-src=&quot;https://fonts.googleapis.com/css?family=Architects+Daughter&quot; face=&quot;Architects Daughter&quot;&gt;Ec2 User Data&lt;br&gt;Attachment Based&amp;nbsp;&lt;br&gt;on Tag&lt;/font&gt;&lt;/p&gt;" style="text;html=1;align=center;verticalAlign=middle;resizable=0;points=[];autosize=1;strokeColor=none;fillColor=none;" parent="5FSwtbx7xSjNY1tLkPIk-3" vertex="1">
          <mxGeometry x="24" y="252" width="112" height="76" as="geometry" />
        </mxCell>
        <mxCell id="fPEKX6Ttl3wAnktyUxPx-41" value="" style="endArrow=classic;html=1;rounded=0;labelBackgroundColor=default;hachureGap=4;strokeColor=#6c8ebf;align=center;verticalAlign=middle;fontFamily=Architects Daughter;fontSource=https%3A%2F%2Ffonts.googleapis.com%2Fcss%3Ffamily%3DArchitects%2BDaughter;fontSize=16;fontColor=default;shape=connector;fillColor=#dae8fc;strokeWidth=2;sketch=1;curveFitting=1;jiggle=2;" parent="5FSwtbx7xSjNY1tLkPIk-3" edge="1">
          <mxGeometry width="50" height="50" relative="1" as="geometry">
            <mxPoint x="400" y="-36" as="sourcePoint" />
            <mxPoint x="400" y="124" as="targetPoint" />
          </mxGeometry>
        </mxCell>
        <mxCell id="5FSwtbx7xSjNY1tLkPIk-6" value="" style="outlineConnect=0;fontColor=#232F3E;gradientColor=none;fillColor=#ed7100;strokeColor=none;dashed=0;verticalLabelPosition=bottom;verticalAlign=top;align=center;html=1;fontSize=12;fontStyle=0;aspect=fixed;pointerEvents=1;shape=mxgraph.aws4.users;" parent="1" vertex="1">
          <mxGeometry x="-24" y="-700" width="56" height="56" as="geometry" />
        </mxCell>
      </root>
    </mxGraphModel>
  </diagram>
</mxfile>
